<svg width="374" height="311" viewBox="0 0 374 311" fill="none" xmlns="http://www.w3.org/2000/svg">
<g filter="url(#filter0_d_2630_3115)">
<path d="M287.663 48H86.3357C56.3273 48 32 71.0193 32 99.4152V372.396C32 400.792 56.3273 423.811 86.3357 423.811H287.663C317.672 423.811 341.999 400.792 341.999 372.396V99.4152C341.999 71.0193 317.672 48 287.663 48Z" fill="white" fill-opacity="0.01"/>
</g>
<path d="M287.663 48H86.3357C56.3273 48 32 71.0246 32 99.427V372.47C32 400.872 56.3273 423.897 86.3357 423.897H287.663C317.672 423.897 341.999 400.872 341.999 372.47V99.427C341.999 71.0246 317.672 48 287.663 48Z" fill="white"/>
<path opacity="0.8" d="M241.718 310.486H132.276C124.774 310.486 118.692 316.568 118.692 324.07C118.692 331.572 124.774 337.654 132.276 337.654H241.718C249.22 337.654 255.302 331.572 255.302 324.07C255.302 316.568 249.22 310.486 241.718 310.486Z" fill="#778BA5"/>
<path opacity="0.5" d="M208.452 167.511H165.538C158.141 167.511 152.145 173.507 152.145 180.904C152.145 188.301 158.141 194.298 165.538 194.298H208.452C215.849 194.298 221.846 188.301 221.846 180.904C221.846 173.507 215.849 167.511 208.452 167.511Z" fill="#E3E9F1"/>
<g filter="url(#filter1_d_2630_3115)">
<path d="M137.473 113.792C152.026 103.052 169.678 97.3345 187.764 97.5006C205.85 97.6671 223.393 103.708 237.749 114.714C252.101 125.72 262.491 141.094 267.342 158.518C272.198 175.942 271.259 194.472 264.664 211.315" stroke="#1C7DF8" stroke-opacity="0.01" stroke-width="44.6829" stroke-linecap="round"/>
</g>
<path d="M137.143 113.587C151.696 102.846 169.348 97.1287 187.434 97.2948C205.52 97.4613 223.063 103.503 237.419 114.508C251.771 125.514 262.161 140.888 267.012 158.312C271.868 175.736 270.928 194.266 264.334 211.109" stroke="#1C7DF8" stroke-width="44.6829" stroke-linecap="round"/>
<g filter="url(#filter2_d_2630_3115)">
<path d="M264.682 211.264C259.842 223.65 252.107 234.699 242.129 243.49C232.15 252.281 220.216 258.558 207.315 261.798C194.418 265.038 180.931 265.147 167.984 262.115C155.036 259.084 143.001 253 132.88 244.372" stroke="#FFCD1D" stroke-opacity="0.01" stroke-width="44.6829" stroke-linecap="round"/>
</g>
<path d="M264.683 211.264C259.843 223.65 252.108 234.7 242.13 243.49C232.151 252.281 220.217 258.558 207.316 261.798C194.419 265.038 180.932 265.147 167.985 262.116C155.037 259.084 143.002 253.001 132.881 244.372" stroke="#FFCD1D" stroke-width="44.6829" stroke-linecap="round"/>
<g filter="url(#filter3_d_2630_3115)">
<path d="M133.692 245.054C119.449 233.219 109.549 216.979 105.555 198.896C101.56 180.813 103.697 161.914 111.629 145.179C119.561 128.445 132.837 114.826 149.364 106.47C165.89 98.1143 184.729 95.4961 202.908 99.0287" stroke="#72D962" stroke-opacity="0.01" stroke-width="44.6829" stroke-linecap="round"/>
</g>
<path d="M133.36 244.849C119.117 233.013 109.217 216.773 105.223 198.69C101.228 180.607 103.365 161.708 111.297 144.974C119.229 128.24 132.505 114.621 149.032 106.265C165.558 97.9085 184.397 95.2903 202.576 98.8229" stroke="#72D962" stroke-width="44.6829" stroke-linecap="round"/>
<defs>
<filter id="filter0_d_2630_3115" x="-31.7007" y="0.224453" width="437.4" height="503.212" filterUnits="userSpaceOnUse" color-interpolation-filters="sRGB">
<feFlood flood-opacity="0" result="BackgroundImageFix"/>
<feColorMatrix in="SourceAlpha" type="matrix" values="0 0 0 0 0 0 0 0 0 0 0 0 0 0 0 0 0 0 127 0" result="hardAlpha"/>
<feOffset dy="15.9252"/>
<feGaussianBlur stdDeviation="31.8504"/>
<feColorMatrix type="matrix" values="0 0 0 0 0.109219 0 0 0 0 0.491032 0 0 0 0 0.970833 0 0 0 0.19 0"/>
<feBlend mode="normal" in2="BackgroundImageFix" result="effect1_dropShadow_2630_3115"/>
<feBlend mode="normal" in="SourceGraphic" in2="effect1_dropShadow_2630_3115" result="shape"/>
</filter>
<filter id="filter1_d_2630_3115" x="103.103" y="67.6921" width="201.669" height="182.561" filterUnits="userSpaceOnUse" color-interpolation-filters="sRGB">
<feFlood flood-opacity="0" result="BackgroundImageFix"/>
<feColorMatrix in="SourceAlpha" type="matrix" values="0 0 0 0 0 0 0 0 0 0 0 0 0 0 0 0 0 0 127 0" result="hardAlpha"/>
<feOffset dy="4.56352"/>
<feGaussianBlur stdDeviation="6.01355"/>
<feColorMatrix type="matrix" values="0 0 0 0 0.109219 0 0 0 0 0.491032 0 0 0 0 0.970833 0 0 0 0.18 0"/>
<feBlend mode="normal" in2="BackgroundImageFix" result="effect1_dropShadow_2630_3115"/>
<feBlend mode="normal" in="SourceGraphic" in2="effect1_dropShadow_2630_3115" result="shape"/>
</filter>
<filter id="filter2_d_2630_3115" x="95.1225" y="175.782" width="207.322" height="128.567" filterUnits="userSpaceOnUse" color-interpolation-filters="sRGB">
<feFlood flood-opacity="0" result="BackgroundImageFix"/>
<feColorMatrix in="SourceAlpha" type="matrix" values="0 0 0 0 0 0 0 0 0 0 0 0 0 0 0 0 0 0 127 0" result="hardAlpha"/>
<feOffset dy="2.28176"/>
<feGaussianBlur stdDeviation="7.70779"/>
<feColorMatrix type="matrix" values="0 0 0 0 1 0 0 0 0 0.80475 0 0 0 0 0.1125 0 0 0 0.18 0"/>
<feBlend mode="normal" in2="BackgroundImageFix" result="effect1_dropShadow_2630_3115"/>
<feBlend mode="normal" in="SourceGraphic" in2="effect1_dropShadow_2630_3115" result="shape"/>
</filter>
<filter id="filter3_d_2630_3115" x="69.2219" y="70.2777" width="168.059" height="216.295" filterUnits="userSpaceOnUse" color-interpolation-filters="sRGB">
<feFlood flood-opacity="0" result="BackgroundImageFix"/>
<feColorMatrix in="SourceAlpha" type="matrix" values="0 0 0 0 0 0 0 0 0 0 0 0 0 0 0 0 0 0 127 0" result="hardAlpha"/>
<feOffset dy="7.14925"/>
<feGaussianBlur stdDeviation="6.01355"/>
<feColorMatrix type="matrix" values="0 0 0 0 0.44795 0 0 0 0 0.85 0 0 0 0 0.3825 0 0 0 0.31 0"/>
<feBlend mode="normal" in2="BackgroundImageFix" result="effect1_dropShadow_2630_3115"/>
<feBlend mode="normal" in="SourceGraphic" in2="effect1_dropShadow_2630_3115" result="shape"/>
</filter>
</defs>
</svg>
