<svg width="242" height="177" viewBox="0 0 242 177" fill="none" xmlns="http://www.w3.org/2000/svg">
<g filter="url(#filter0_dd_2630_3202)">
<path d="M169.994 26.0001H72.0026C57.7196 26.0001 46.1406 37.5789 46.1406 51.8621V182.1C46.1406 196.383 57.7196 207.962 72.0026 207.962H169.994C184.277 207.962 195.856 196.383 195.856 182.1V51.8621C195.856 37.5789 184.277 26.0001 169.994 26.0001Z" fill="white" fill-opacity="0.01"/>
</g>
<path d="M169.995 26H72.0036C57.7206 26 46.1416 37.5788 46.1416 51.862V182.1C46.1416 196.383 57.7206 207.962 72.0036 207.962H169.995C184.278 207.962 195.857 196.383 195.857 182.1V51.862C195.857 37.5788 184.278 26 169.995 26Z" fill="white"/>
<path d="M168.867 44.4362H73.1265C69.5558 44.4362 66.6611 47.3308 66.6611 50.9015V84.6444C66.6611 88.2151 69.5558 91.1098 73.1265 91.1098H168.867C172.437 91.1098 175.332 88.2151 175.332 84.6444V50.9015C175.332 47.3308 172.437 44.4362 168.867 44.4362Z" fill="#EFF2F7"/>
<path d="M109.423 99.5969H73.1265C69.5558 99.5969 66.6611 102.492 66.6611 106.062V158.192C66.6611 161.763 69.5558 164.657 73.1265 164.657H109.423C112.993 164.657 115.888 161.763 115.888 158.192V106.062C115.888 102.492 112.993 99.5969 109.423 99.5969Z" fill="#EFF2F7"/>
<path d="M139.144 176.392H102.848C99.2774 176.392 96.3828 179.287 96.3828 182.858V183.057C96.3828 186.628 99.2774 189.522 102.848 189.522H139.144C142.715 189.522 145.61 186.628 145.61 183.057V182.858C145.61 179.287 142.715 176.392 139.144 176.392Z" fill="#EFF2F7"/>
<path d="M168.867 99.5969H132.571C129 99.5969 126.105 102.492 126.105 106.062V158.192C126.105 161.763 129 164.657 132.571 164.657H168.867C172.438 164.657 175.332 161.763 175.332 158.192V106.062C175.332 102.492 172.438 99.5969 168.867 99.5969Z" fill="#EFF2F7"/>
<g filter="url(#filter1_d_2630_3202)">
<path d="M34.5744 173.248C37.6379 173.254 40.5876 172.088 42.8187 169.989L95.7776 120.315C96.5356 119.597 97.5436 119.205 98.587 119.221C99.6304 119.236 100.626 119.659 101.363 120.398L119.177 138.221C124.536 143.337 131.661 146.192 139.071 146.192C146.481 146.192 153.605 143.337 158.965 138.221L188.783 108.402C188.969 108.216 189.189 108.068 189.433 107.967C189.676 107.866 189.936 107.814 190.2 107.814C190.463 107.814 190.724 107.866 190.967 107.967C191.21 108.068 191.431 108.216 191.617 108.402L205.738 122.474C207.246 123.974 209.288 124.817 211.415 124.816C213.546 124.814 215.59 123.967 217.098 122.46C218.606 120.954 219.455 118.912 219.459 116.78V68.7477C219.457 66.6159 218.609 64.5717 217.1 63.0653C215.592 61.5583 213.547 60.7117 211.415 60.7117H163.191C161.595 60.7055 160.033 61.1753 158.704 62.0602C157.376 62.9455 156.341 64.2064 155.732 65.6822C155.123 67.1575 154.967 68.7812 155.285 70.3456C155.602 71.9105 156.378 73.3447 157.514 74.4666L171.686 88.6376C172.063 89.0159 172.276 89.5287 172.278 90.0631C172.279 90.3269 172.226 90.5884 172.125 90.8316C172.023 91.0749 171.874 91.2956 171.686 91.4805L141.909 121.265C141.153 122.013 140.131 122.433 139.067 122.433C138.002 122.433 136.981 122.013 136.224 121.265L118.402 103.443C113.262 98.2509 106.297 95.2739 98.9926 95.146C91.6883 95.0182 84.6234 97.7505 79.3058 102.759L26.33 152.392C24.5736 154.047 23.3542 156.191 22.8295 158.547C22.3048 160.903 22.4989 163.362 23.3868 165.607C24.2747 167.851 25.8155 169.778 27.8099 171.137C29.8043 172.496 32.1608 173.226 34.5744 173.232V173.248Z" fill="#72D962" fill-opacity="0.01"/>
</g>
<path d="M34.5734 173.248C37.6369 173.254 40.5867 172.088 42.8177 169.989L95.7766 120.315C96.5347 119.597 97.5426 119.205 98.586 119.221C99.6294 119.236 100.625 119.659 101.362 120.398L119.176 138.221C124.535 143.337 131.66 146.192 139.07 146.192C146.48 146.192 153.604 143.337 158.964 138.221L188.782 108.402C188.968 108.216 189.188 108.068 189.432 107.967C189.675 107.866 189.935 107.814 190.199 107.814C190.462 107.814 190.723 107.866 190.966 107.967C191.209 108.068 191.43 108.216 191.616 108.402L205.737 122.474C207.245 123.974 209.287 124.817 211.414 124.816C213.545 124.814 215.589 123.967 217.097 122.46C218.605 120.954 219.454 118.912 219.458 116.78V68.7477C219.456 66.6159 218.608 64.5717 217.099 63.0653C215.591 61.5583 213.546 60.7117 211.414 60.7117H163.19C161.594 60.7055 160.032 61.1753 158.703 62.0602C157.375 62.9455 156.34 64.2064 155.731 65.6822C155.122 67.1575 154.966 68.7812 155.284 70.3456C155.601 71.9105 156.377 73.3447 157.513 74.4666L171.685 88.6376C172.062 89.0159 172.275 89.5287 172.277 90.0631C172.278 90.3269 172.225 90.5884 172.124 90.8316C172.022 91.0749 171.873 91.2956 171.685 91.4805L141.908 121.265C141.152 122.013 140.13 122.433 139.066 122.433C138.001 122.433 136.98 122.013 136.223 121.265L118.401 103.443C113.261 98.2509 106.296 95.2739 98.9916 95.146C91.6873 95.0182 84.6224 97.7505 79.3048 102.759L26.3291 152.392C24.5726 154.047 23.3532 156.191 22.8285 158.547C22.3038 160.903 22.498 163.362 23.3858 165.607C24.2737 167.851 25.8145 169.778 27.8089 171.137C29.8034 172.496 32.1598 173.226 34.5734 173.232V173.248Z" fill="#72D962"/>
<defs>
<filter id="filter0_dd_2630_3202" x="0.882195" y="0.138121" width="240.232" height="272.478" filterUnits="userSpaceOnUse" color-interpolation-filters="sRGB">
<feFlood flood-opacity="0" result="BackgroundImageFix"/>
<feColorMatrix in="SourceAlpha" type="matrix" values="0 0 0 0 0 0 0 0 0 0 0 0 0 0 0 0 0 0 127 0" result="hardAlpha"/>
<feOffset dy="19.3964"/>
<feGaussianBlur stdDeviation="22.6292"/>
<feColorMatrix type="matrix" values="0 0 0 0 0.44795 0 0 0 0 0.85 0 0 0 0 0.3825 0 0 0 0.22 0"/>
<feBlend mode="normal" in2="BackgroundImageFix" result="effect1_dropShadow_2630_3202"/>
<feColorMatrix in="SourceAlpha" type="matrix" values="0 0 0 0 0 0 0 0 0 0 0 0 0 0 0 0 0 0 127 0" result="hardAlpha"/>
<feOffset/>
<feGaussianBlur stdDeviation="6.46548"/>
<feColorMatrix type="matrix" values="0 0 0 0 0.0976562 0 0 0 0 0.192861 0 0 0 0 0.3125 0 0 0 0.07 0"/>
<feBlend mode="normal" in2="effect1_dropShadow_2630_3202" result="effect2_dropShadow_2630_3202"/>
<feBlend mode="normal" in="SourceGraphic" in2="effect2_dropShadow_2630_3202" result="shape"/>
</filter>
<filter id="filter1_d_2630_3202" x="3.14459" y="54.2462" width="235.711" height="151.329" filterUnits="userSpaceOnUse" color-interpolation-filters="sRGB">
<feFlood flood-opacity="0" result="BackgroundImageFix"/>
<feColorMatrix in="SourceAlpha" type="matrix" values="0 0 0 0 0 0 0 0 0 0 0 0 0 0 0 0 0 0 127 0" result="hardAlpha"/>
<feOffset dy="12.931"/>
<feGaussianBlur stdDeviation="9.69821"/>
<feColorMatrix type="matrix" values="0 0 0 0 0.44795 0 0 0 0 0.85 0 0 0 0 0.3825 0 0 0 0.38 0"/>
<feBlend mode="normal" in2="BackgroundImageFix" result="effect1_dropShadow_2630_3202"/>
<feBlend mode="normal" in="SourceGraphic" in2="effect1_dropShadow_2630_3202" result="shape"/>
</filter>
</defs>
</svg>
