<svg width="385" height="255" viewBox="0 0 385 255" fill="none" xmlns="http://www.w3.org/2000/svg">
<g filter="url(#filter0_d_2662_1812)">
<path d="M307.943 41H70.6099C49.2862 41 32 58.2862 32 79.6099V184.39C32 205.714 49.2862 223 70.6099 223H307.943C329.267 223 346.553 205.714 346.553 184.39V79.6099C346.553 58.2862 329.267 41 307.943 41Z" fill="white" fill-opacity="0.01"/>
</g>
<path d="M307.943 41H70.6099C49.2862 41 32 58.2862 32 79.6099V184.39C32 205.714 49.2862 223 70.6099 223H307.943C329.267 223 346.553 205.714 346.553 184.39V79.6099C346.553 58.2862 329.267 41 307.943 41Z" fill="white"/>
<g filter="url(#filter1_d_2662_1812)">
<path d="M57.9775 192.346C77.408 188.164 107.718 181.11 130.242 181.11C162.524 181.11 185.28 193.191 216.085 193.191C246.889 193.191 295.637 184.086 320.754 184.086C345.871 184.086 351.558 193.191 363.879 193.191" stroke="#72D962" stroke-opacity="0.01" stroke-width="5.72075" stroke-linecap="round"/>
</g>
<path d="M57.9766 192.346C77.407 188.164 107.717 181.109 130.242 181.109C162.523 181.109 185.279 193.191 216.084 193.191C246.888 193.191 295.636 184.086 320.753 184.086C345.87 184.086 351.557 193.191 363.878 193.191" stroke="#72D962" stroke-width="5.72075" stroke-linecap="round"/>
<g filter="url(#filter2_d_2662_1812)">
<path d="M57.8867 192.386C86.3649 174.653 153.327 133.963 190.743 132.985C237.513 131.762 255.568 165.481 296.102 170.373C336.636 175.265 364.075 100.666 390.89 100.054" stroke="#1C7DF8" stroke-opacity="0.01" stroke-width="5.72075" stroke-linecap="round"/>
</g>
<path d="M57.8867 192.386C86.3649 174.653 153.327 133.963 190.743 132.985C237.513 131.762 255.568 165.481 296.102 170.373C336.636 175.265 364.075 100.666 390.89 100.054" stroke="#1C7DF8" stroke-width="5.72075" stroke-linecap="round"/>
<g filter="url(#filter3_d_2662_1812)">
<path d="M57.875 192.38C68.0652 176.837 95.1245 144.787 117.543 148.784C145.564 153.78 159.597 175.753 192.715 175.753C225.832 175.753 258.504 116.31 289.923 116.31C321.343 116.31 333.502 158.117 354.731 158.951" stroke="#FFCD1D" stroke-opacity="0.01" stroke-width="5.72075" stroke-linecap="round"/>
</g>
<path d="M57.874 192.379C68.0642 176.837 95.1234 144.787 117.541 148.784C145.563 153.78 159.596 175.753 192.714 175.753C225.831 175.753 258.503 116.31 289.922 116.31C321.342 116.31 333.501 158.117 354.73 158.95" stroke="#FFCD1D" stroke-width="5.72075" stroke-linecap="round"/>
<path d="M149.14 72.5739H64.1275C60.6808 72.5739 57.8867 75.368 57.8867 78.8147C57.8867 82.2614 60.6808 85.0555 64.1275 85.0555H149.14C152.587 85.0555 155.381 82.2614 155.381 78.8147C155.381 75.368 152.587 72.5739 149.14 72.5739Z" fill="#DCE3ED"/>
<g filter="url(#filter4_d_2662_1812)">
<path d="M317.473 88.128C322.616 88.128 326.786 83.9583 326.786 78.8148C326.786 73.6713 322.616 69.5017 317.473 69.5017C312.329 69.5017 308.159 73.6713 308.159 78.8148C308.159 83.9583 312.329 88.128 317.473 88.128Z" fill="#1C7DF8" fill-opacity="0.01"/>
</g>
<path d="M317.473 88.128C322.616 88.128 326.786 83.9583 326.786 78.8148C326.786 73.6713 322.616 69.5017 317.473 69.5017C312.329 69.5017 308.159 73.6713 308.159 78.8148C308.159 83.9583 312.329 88.128 317.473 88.128Z" fill="#1C7DF8"/>
<g filter="url(#filter5_d_2662_1812)">
<path d="M292.604 88.1278C297.748 88.1278 301.918 83.9581 301.918 78.8147C301.918 73.6712 297.748 69.5016 292.604 69.5016C287.461 69.5016 283.291 73.6712 283.291 78.8147C283.291 83.9581 287.461 88.1278 292.604 88.1278Z" fill="#72D962" fill-opacity="0.01"/>
</g>
<path d="M292.603 88.128C297.747 88.128 301.917 83.9583 301.917 78.8148C301.917 73.6713 297.747 69.5017 292.603 69.5017C287.46 69.5017 283.29 73.6713 283.29 78.8148C283.29 83.9583 287.46 88.128 292.603 88.128Z" fill="#72D962"/>
<g filter="url(#filter6_d_2662_1812)">
<path d="M267.738 88.128C272.882 88.128 277.052 83.9583 277.052 78.8148C277.052 73.6713 272.882 69.5017 267.738 69.5017C262.595 69.5017 258.425 73.6713 258.425 78.8148C258.425 83.9583 262.595 88.128 267.738 88.128Z" fill="#FFCD1D" fill-opacity="0.01"/>
</g>
<path d="M267.738 88.128C272.882 88.128 277.052 83.9583 277.052 78.8148C277.052 73.6713 272.882 69.5017 267.738 69.5017C262.595 69.5017 258.425 73.6713 258.425 78.8148C258.425 83.9583 262.595 88.128 267.738 88.128Z" fill="#FFCD1D"/>
<defs>
<filter id="filter0_d_2662_1812" x="-22.5756" y="0.0398321" width="423.704" height="291.151" filterUnits="userSpaceOnUse" color-interpolation-filters="sRGB">
<feFlood flood-opacity="0" result="BackgroundImageFix"/>
<feColorMatrix in="SourceAlpha" type="matrix" values="0 0 0 0 0 0 0 0 0 0 0 0 0 0 0 0 0 0 127 0" result="hardAlpha"/>
<feOffset dy="13.6154"/>
<feGaussianBlur stdDeviation="27.2878"/>
<feColorMatrix type="matrix" values="0 0 0 0 0.0651563 0 0 0 0 0.292933 0 0 0 0 0.579167 0 0 0 0.11 0"/>
<feBlend mode="normal" in2="BackgroundImageFix" result="effect1_dropShadow_2662_1812"/>
<feBlend mode="normal" in="SourceGraphic" in2="effect1_dropShadow_2662_1812" result="shape"/>
</filter>
<filter id="filter1_d_2662_1812" x="48.8754" y="174.089" width="324.105" height="30.2835" filterUnits="userSpaceOnUse" color-interpolation-filters="sRGB">
<feFlood flood-opacity="0" result="BackgroundImageFix"/>
<feColorMatrix in="SourceAlpha" type="matrix" values="0 0 0 0 0 0 0 0 0 0 0 0 0 0 0 0 0 0 127 0" result="hardAlpha"/>
<feOffset dy="2.08027"/>
<feGaussianBlur stdDeviation="3.12041"/>
<feColorMatrix type="matrix" values="0 0 0 0 0.44795 0 0 0 0 0.85 0 0 0 0 0.3825 0 0 0 0.29 0"/>
<feBlend mode="normal" in2="BackgroundImageFix" result="effect1_dropShadow_2662_1812"/>
<feBlend mode="normal" in="SourceGraphic" in2="effect1_dropShadow_2662_1812" result="shape"/>
</filter>
<filter id="filter2_d_2662_1812" x="48.7855" y="93.0333" width="351.205" height="110.534" filterUnits="userSpaceOnUse" color-interpolation-filters="sRGB">
<feFlood flood-opacity="0" result="BackgroundImageFix"/>
<feColorMatrix in="SourceAlpha" type="matrix" values="0 0 0 0 0 0 0 0 0 0 0 0 0 0 0 0 0 0 127 0" result="hardAlpha"/>
<feOffset dy="2.08027"/>
<feGaussianBlur stdDeviation="3.12041"/>
<feColorMatrix type="matrix" values="0 0 0 0 0.109219 0 0 0 0 0.491032 0 0 0 0 0.970833 0 0 0 0.22 0"/>
<feBlend mode="normal" in2="BackgroundImageFix" result="effect1_dropShadow_2662_1812"/>
<feBlend mode="normal" in="SourceGraphic" in2="effect1_dropShadow_2662_1812" result="shape"/>
</filter>
<filter id="filter3_d_2662_1812" x="48.7738" y="109.289" width="315.059" height="94.272" filterUnits="userSpaceOnUse" color-interpolation-filters="sRGB">
<feFlood flood-opacity="0" result="BackgroundImageFix"/>
<feColorMatrix in="SourceAlpha" type="matrix" values="0 0 0 0 0 0 0 0 0 0 0 0 0 0 0 0 0 0 127 0" result="hardAlpha"/>
<feOffset dy="2.08027"/>
<feGaussianBlur stdDeviation="3.12041"/>
<feColorMatrix type="matrix" values="0 0 0 0 1 0 0 0 0 0.80475 0 0 0 0 0.1125 0 0 0 0.22 0"/>
<feBlend mode="normal" in2="BackgroundImageFix" result="effect1_dropShadow_2662_1812"/>
<feBlend mode="normal" in="SourceGraphic" in2="effect1_dropShadow_2662_1812" result="shape"/>
</filter>
<filter id="filter4_d_2662_1812" x="301.918" y="65.3412" width="31.1086" height="31.1079" filterUnits="userSpaceOnUse" color-interpolation-filters="sRGB">
<feFlood flood-opacity="0" result="BackgroundImageFix"/>
<feColorMatrix in="SourceAlpha" type="matrix" values="0 0 0 0 0 0 0 0 0 0 0 0 0 0 0 0 0 0 127 0" result="hardAlpha"/>
<feOffset dy="2.08027"/>
<feGaussianBlur stdDeviation="3.12041"/>
<feColorMatrix type="matrix" values="0 0 0 0 0.109219 0 0 0 0 0.491032 0 0 0 0 0.970833 0 0 0 0.19 0"/>
<feBlend mode="normal" in2="BackgroundImageFix" result="effect1_dropShadow_2662_1812"/>
<feBlend mode="normal" in="SourceGraphic" in2="effect1_dropShadow_2662_1812" result="shape"/>
</filter>
<filter id="filter5_d_2662_1812" x="277.05" y="65.341" width="31.1086" height="31.1079" filterUnits="userSpaceOnUse" color-interpolation-filters="sRGB">
<feFlood flood-opacity="0" result="BackgroundImageFix"/>
<feColorMatrix in="SourceAlpha" type="matrix" values="0 0 0 0 0 0 0 0 0 0 0 0 0 0 0 0 0 0 127 0" result="hardAlpha"/>
<feOffset dy="2.08027"/>
<feGaussianBlur stdDeviation="3.12041"/>
<feColorMatrix type="matrix" values="0 0 0 0 0.44795 0 0 0 0 0.85 0 0 0 0 0.3825 0 0 0 0.21 0"/>
<feBlend mode="normal" in2="BackgroundImageFix" result="effect1_dropShadow_2662_1812"/>
<feBlend mode="normal" in="SourceGraphic" in2="effect1_dropShadow_2662_1812" result="shape"/>
</filter>
<filter id="filter6_d_2662_1812" x="251.144" y="64.301" width="33.1889" height="33.1881" filterUnits="userSpaceOnUse" color-interpolation-filters="sRGB">
<feFlood flood-opacity="0" result="BackgroundImageFix"/>
<feColorMatrix in="SourceAlpha" type="matrix" values="0 0 0 0 0 0 0 0 0 0 0 0 0 0 0 0 0 0 127 0" result="hardAlpha"/>
<feOffset dy="2.08027"/>
<feGaussianBlur stdDeviation="3.64048"/>
<feColorMatrix type="matrix" values="0 0 0 0 1 0 0 0 0 0.803921 0 0 0 0 0.113725 0 0 0 0.29 0"/>
<feBlend mode="normal" in2="BackgroundImageFix" result="effect1_dropShadow_2662_1812"/>
<feBlend mode="normal" in="SourceGraphic" in2="effect1_dropShadow_2662_1812" result="shape"/>
</filter>
</defs>
</svg>
