<svg width="80" height="80" viewBox="0 0 80 80" fill="none" xmlns="http://www.w3.org/2000/svg">
<g clip-path="url(#clip0_2662_1946)">
<path d="M4 80.0001H76C77.0609 80.0001 78.0783 79.5787 78.8284 78.8285C79.5786 78.0784 80 77.061 80 76.0001C80 66.6948 78.2667 52.2961 78.252 52.1334C78.0011 50.2984 77.2142 48.5782 75.9898 47.1886C74.7654 45.7989 73.1581 44.8015 71.3693 44.3214C72.6446 42.6514 73.3347 40.608 73.3333 38.5068V36.1601C73.3515 33.6644 72.379 31.2635 70.6294 29.4838C68.8797 27.7041 66.4956 26.691 64 26.6668C62.7676 26.6655 61.5475 26.9119 60.4121 27.3913C59.2767 27.8707 58.2493 28.5733 57.3907 29.4574C55.64 31.2488 54.662 33.6554 54.6667 36.1601V38.5068C54.6625 41.0137 55.642 43.4223 57.3947 45.2148C58.6869 46.541 60.3482 47.4478 62.1627 47.8174C61.7942 48.4055 61.5033 49.0387 61.2973 49.7014L60.8173 51.3014C60.4619 50.7041 59.9579 50.209 59.3544 49.8641C58.7509 49.5192 58.0684 49.3364 57.3733 49.3334H22.6267C21.9316 49.3371 21.2493 49.5204 20.646 49.8658C20.0428 50.2111 19.5391 50.7066 19.184 51.3041L18.7027 49.7041C18.4972 49.0412 18.2063 48.4079 17.8373 47.8201C19.6538 47.4497 21.3166 46.5409 22.6093 45.2121C24.3606 43.4201 25.3387 41.0124 25.3333 38.5068V36.1601C25.3375 33.6531 24.358 31.2446 22.6053 29.4521C21.7468 28.5694 20.7197 27.868 19.5851 27.3896C18.4505 26.9112 17.2314 26.6654 16 26.6668C13.5044 26.691 11.1203 27.7041 9.37064 29.4838C7.62096 31.2635 6.64854 33.6644 6.66667 36.1601V38.5068C6.66498 40.6085 7.35516 42.6523 8.63067 44.3228C6.83979 44.8047 5.23105 45.8047 4.00618 47.1973C2.78131 48.5898 1.99482 50.313 1.74533 52.1508C1.73333 52.2961 0 66.6948 0 76.0001C0 77.061 0.421427 78.0784 1.17157 78.8285C1.92172 79.5787 2.93913 80.0001 4 80.0001ZM12 76.0001V73.2001C12.3038 73.2859 12.6177 73.3308 12.9333 73.3334H67.0667C67.3823 73.3308 67.6962 73.2859 68 73.2001V76.0001C68 76.3537 67.8595 76.6928 67.6095 76.9429C67.3594 77.1929 67.0203 77.3334 66.6667 77.3334H13.3333C12.9797 77.3334 12.6406 77.1929 12.3905 76.9429C12.1405 76.6928 12 76.3537 12 76.0001ZM75.6067 52.4721C75.6253 52.6134 77.3333 66.8561 77.3333 76.0001C77.3333 76.3537 77.1929 76.6928 76.9428 76.9429C76.6928 77.1929 76.3536 77.3334 76 77.3334H70.4213C70.5793 76.9064 70.6622 76.4553 70.6667 76.0001V69.7334C70.6658 69.1166 70.506 68.5105 70.2027 67.9734L66.8693 62.0308L69.2293 56.5254C69.3628 56.2015 69.3634 55.8381 69.231 55.5137C69.0986 55.1894 68.8439 54.9301 68.5219 54.7921C68.1999 54.654 67.8365 54.6483 67.5103 54.776C67.1841 54.9038 66.9213 55.1548 66.7787 55.4748L64.16 61.5761C63.8515 62.2957 63.3387 62.9089 62.685 63.3398C62.0313 63.7707 61.2656 64.0003 60.4827 64.0001H52.6667C52.1362 64.0001 51.6275 63.7894 51.2525 63.4143C50.8774 63.0392 50.6667 62.5305 50.6667 62.0001C50.6667 61.4697 50.8774 60.9609 51.2525 60.5859C51.6275 60.2108 52.1362 60.0001 52.6667 60.0001H58.016C58.8773 60.0041 59.7166 59.7283 60.4077 59.2142C61.0988 58.7001 61.6042 57.9755 61.848 57.1494L63.848 50.4681C64.1727 49.3659 64.8469 48.3991 65.7689 47.7134C66.691 47.0277 67.811 46.6604 68.96 46.6668C70.5816 46.6708 72.1471 47.2604 73.3684 48.3271C74.5897 49.3938 75.3846 50.8658 75.6067 52.4721ZM57.3333 38.5068V36.1601C57.329 34.352 58.0348 32.6144 59.2987 31.3214C59.909 30.6919 60.6398 30.1914 61.4474 29.8499C62.2551 29.5084 63.1231 29.3328 64 29.3334C65.7886 29.357 67.4948 30.0889 68.7446 31.3686C69.9943 32.6483 70.6855 34.3715 70.6667 36.1601V38.5068C70.6722 39.5967 70.4171 40.6722 69.9226 41.6436C69.4282 42.6149 68.7086 43.454 67.824 44.0908C66.6855 44.2543 65.5963 44.6638 64.632 45.2908C64.4222 45.3162 64.2113 45.3305 64 45.3334C63.1242 45.3342 62.2571 45.1591 61.4503 44.8185C60.6434 44.4779 59.9131 43.9788 59.3027 43.3508C58.0369 42.0565 57.3297 40.3171 57.3333 38.5068ZM21.4507 52.6894C21.5672 52.4799 21.7377 52.3055 21.9446 52.1842C22.1514 52.063 22.3869 51.9994 22.6267 52.0001H57.3733C57.6118 51.9985 57.8463 52.0609 58.0524 52.1807C58.2585 52.3005 58.4287 52.4734 58.5453 52.6814L59.7573 54.8334L59.2933 56.3828C59.211 56.6575 59.0423 56.8984 58.8122 57.0697C58.5821 57.241 58.3028 57.3334 58.016 57.3334H52.6667C51.429 57.3334 50.242 57.8251 49.3668 58.7003C48.4917 59.5754 48 60.7624 48 62.0001C48 63.2378 48.4917 64.4247 49.3668 65.2999C50.242 66.1751 51.429 66.6668 52.6667 66.6668H60.4827C61.3758 66.6651 62.2595 66.4834 63.0808 66.1324C63.9021 65.7814 64.6442 65.2684 65.2627 64.6241L67.8733 69.2734C67.955 69.413 67.9987 69.5717 68 69.7334C68 69.856 67.9759 69.9774 67.929 70.0906C67.882 70.2038 67.8133 70.3067 67.7266 70.3934C67.64 70.4801 67.5371 70.5488 67.4238 70.5957C67.3106 70.6426 67.1892 70.6668 67.0667 70.6668H12.9333C12.8108 70.6668 12.6894 70.6426 12.5762 70.5957C12.4629 70.5488 12.36 70.4801 12.2734 70.3934C12.1867 70.3067 12.118 70.2038 12.071 70.0906C12.0241 69.9774 12 69.856 12 69.7334C12.0009 69.5742 12.0432 69.418 12.1227 69.2801L14.7373 64.6241C15.3558 65.2684 16.0979 65.7814 16.9192 66.1324C17.7405 66.4834 18.6242 66.6651 19.5173 66.6668H27.3333C28.571 66.6668 29.758 66.1751 30.6332 65.2999C31.5083 64.4247 32 63.2378 32 62.0001C32 60.7624 31.5083 59.5754 30.6332 58.7003C29.758 57.8251 28.571 57.3334 27.3333 57.3334H21.984C21.6973 57.3335 21.4182 57.2412 21.1882 57.0702C20.9581 56.8992 20.7892 56.6586 20.7067 56.3841L20.2427 54.8348L21.4507 52.6894ZM9.33333 36.1601C9.31447 34.3715 10.0057 32.6483 11.2554 31.3686C12.5052 30.0889 14.2114 29.357 16 29.3334C16.8758 29.3327 17.7429 29.5078 18.5497 29.8484C19.3566 30.1889 20.0869 30.688 20.6973 31.3161C21.9631 32.6103 22.6703 34.3498 22.6667 36.1601V38.5068C22.671 40.3149 21.9652 42.0524 20.7013 43.3454C20.091 43.975 19.3602 44.4754 18.5526 44.8169C17.7449 45.1584 16.8769 45.3341 16 45.3334C15.7891 45.3292 15.5786 45.3136 15.3693 45.2868C14.4045 44.66 13.3149 44.2505 12.176 44.0868C11.2919 43.4504 10.5727 42.6119 10.0783 41.6413C9.58381 40.6707 9.32841 39.596 9.33333 38.5068V36.1601ZM4.39067 52.4881C4.61036 50.8789 5.40439 49.4034 6.62637 48.3336C7.84835 47.2638 9.41589 46.6718 11.04 46.6668C12.1884 46.6613 13.3074 47.029 14.2287 47.7146C15.1499 48.4002 15.8235 49.3665 16.148 50.4681L18.148 57.1494C18.392 57.9762 18.898 58.7013 19.5899 59.2154C20.2818 59.7296 21.122 60.005 21.984 60.0001H27.3333C27.8638 60.0001 28.3725 60.2108 28.7475 60.5859C29.1226 60.9609 29.3333 61.4697 29.3333 62.0001C29.3333 62.5305 29.1226 63.0392 28.7475 63.4143C28.3725 63.7894 27.8638 64.0001 27.3333 64.0001H19.5173C18.7344 64.0003 17.9687 63.7707 17.315 63.3398C16.6613 62.9089 16.1485 62.2957 15.84 61.5761L13.2253 55.4748C13.158 55.3114 13.0589 55.163 12.9338 55.0383C12.8086 54.9135 12.6599 54.8149 12.4963 54.7481C12.3328 54.6814 12.1575 54.6478 11.9808 54.6493C11.8041 54.6509 11.6295 54.6875 11.4671 54.7572C11.3047 54.8268 11.1578 54.928 11.0348 55.0549C10.9119 55.1818 10.8154 55.3319 10.751 55.4964C10.6866 55.661 10.6555 55.8367 10.6595 56.0133C10.6636 56.19 10.7027 56.364 10.7747 56.5254L13.1347 62.0308L9.79333 67.9814C9.49218 68.5163 9.33377 69.1196 9.33333 69.7334V76.0001C9.33775 76.4553 9.42075 76.9064 9.57867 77.3334H4C3.64638 77.3334 3.30724 77.1929 3.05719 76.9429C2.80714 76.6928 2.66667 76.3537 2.66667 76.0001C2.66667 66.8561 4.37467 52.6134 4.39067 52.4881Z" fill="#37F4CD"/>
<path d="M34.667 26.6667H42.2283L48.6537 31.4147C49.0825 31.739 49.5935 31.9367 50.1289 31.9855C50.6643 32.0343 51.2027 31.9321 51.683 31.6907C52.1829 31.4391 52.6025 31.0526 52.8942 30.575C53.1859 30.0974 53.3381 29.5476 53.3337 28.988V26.6667H56.0003C57.0612 26.6667 58.0786 26.2452 58.8288 25.4951C59.5789 24.745 60.0003 23.7275 60.0003 22.6667V9.33333C60.0003 8.27247 59.5789 7.25505 58.8288 6.50491C58.0786 5.75476 57.0612 5.33333 56.0003 5.33333H44.0003V4C44.0003 2.93913 43.5789 1.92172 42.8288 1.17157C42.0786 0.421427 41.0612 0 40.0003 0L18.667 0C17.6061 0 16.5887 0.421427 15.8386 1.17157C15.0884 1.92172 14.667 2.93913 14.667 4V17.3333C14.667 18.3942 15.0884 19.4116 15.8386 20.1618C16.5887 20.9119 17.6061 21.3333 18.667 21.3333H21.3337V23.6547C21.3289 24.2147 21.4811 24.7649 21.7731 25.2428C22.0651 25.7207 22.4852 26.1073 22.9857 26.3587C23.4638 26.6003 24 26.7034 24.5337 26.6563C25.0674 26.6092 25.5772 26.4137 26.0057 26.092L30.667 22.644V22.6667C30.667 23.7275 31.0884 24.745 31.8386 25.4951C32.5887 26.2452 33.6061 26.6667 34.667 26.6667ZM56.0003 8C56.354 8 56.6931 8.14048 56.9431 8.39053C57.1932 8.64057 57.3337 8.97971 57.3337 9.33333V22.6667C57.3337 23.0203 57.1932 23.3594 56.9431 23.6095C56.6931 23.8595 56.354 24 56.0003 24H52.0003C51.6467 24 51.3076 24.1405 51.0575 24.3905C50.8075 24.6406 50.667 24.9797 50.667 25.3333V28.9867C50.6714 29.0512 50.657 29.1157 50.6255 29.1723C50.5941 29.2288 50.5469 29.2751 50.4897 29.3053C50.451 29.3268 50.4065 29.3354 50.3626 29.3299C50.3188 29.3244 50.2778 29.3051 50.2457 29.2747L43.459 24.2613C43.23 24.0912 42.9523 23.9995 42.667 24H34.667C34.3134 24 33.9742 23.8595 33.7242 23.6095C33.4741 23.3594 33.3337 23.0203 33.3337 22.6667V21.3333H40.0003C40.56 21.332 41.113 21.2126 41.6233 20.9828C42.1336 20.753 42.5897 20.4181 42.9617 20H49.3337C49.6873 20 50.0264 19.8595 50.2765 19.6095C50.5265 19.3594 50.667 19.0203 50.667 18.6667C50.667 18.313 50.5265 17.9739 50.2765 17.7239C50.0264 17.4738 49.6873 17.3333 49.3337 17.3333H44.0003V14.6667H52.0003C52.354 14.6667 52.6931 14.5262 52.9431 14.2761C53.1932 14.0261 53.3337 13.687 53.3337 13.3333C53.3337 12.9797 53.1932 12.6406 52.9431 12.3905C52.6931 12.1405 52.354 12 52.0003 12H44.0003V8H56.0003ZM24.4137 23.9493C24.382 23.9774 24.3424 23.9948 24.3004 23.9994C24.2583 24.0039 24.2159 23.9953 24.179 23.9747C24.1216 23.9444 24.0743 23.8983 24.0426 23.8417C24.0109 23.7852 23.9962 23.7207 24.0003 23.656V20C24.0003 19.6464 23.8599 19.3072 23.6098 19.0572C23.3598 18.8071 23.0206 18.6667 22.667 18.6667H18.667C18.3134 18.6667 17.9742 18.5262 17.7242 18.2761C17.4741 18.0261 17.3337 17.687 17.3337 17.3333V4C17.3337 3.64638 17.4741 3.30724 17.7242 3.05719C17.9742 2.80714 18.3134 2.66667 18.667 2.66667H40.0003C40.3539 2.66667 40.6931 2.80714 40.9431 3.05719C41.1932 3.30724 41.3337 3.64638 41.3337 4V17.3333C41.3337 17.687 41.1932 18.0261 40.9431 18.2761C40.6931 18.5262 40.3539 18.6667 40.0003 18.6667H32.0003C31.7146 18.6684 31.4369 18.7619 31.2083 18.9333L24.4137 23.9493Z" fill="#37F4CD"/>
<path d="M22.6663 9.33341H35.9997C36.3533 9.33341 36.6924 9.19294 36.9425 8.94289C37.1925 8.69284 37.333 8.3537 37.333 8.00008C37.333 7.64646 37.1925 7.30732 36.9425 7.05727C36.6924 6.80722 36.3533 6.66675 35.9997 6.66675H22.6663C22.3127 6.66675 21.9736 6.80722 21.7235 7.05727C21.4735 7.30732 21.333 7.64646 21.333 8.00008C21.333 8.3537 21.4735 8.69284 21.7235 8.94289C21.9736 9.19294 22.3127 9.33341 22.6663 9.33341Z" fill="#37F4CD"/>
<path d="M34.6663 13.3333C34.6663 12.9797 34.5259 12.6406 34.2758 12.3905C34.0258 12.1405 33.6866 12 33.333 12H22.6663C22.3127 12 21.9736 12.1405 21.7235 12.3905C21.4735 12.6406 21.333 12.9797 21.333 13.3333C21.333 13.687 21.4735 14.0261 21.7235 14.2761C21.9736 14.5262 22.3127 14.6667 22.6663 14.6667H33.333C33.6866 14.6667 34.0258 14.5262 34.2758 14.2761C34.5259 14.0261 34.6663 13.687 34.6663 13.3333Z" fill="#37F4CD"/>
</g>
<defs>
<clipPath id="clip0_2662_1946">
<rect width="80" height="80" fill="white"/>
</clipPath>
</defs>
</svg>
